<?xml version="1.0" encoding="utf-8" standalone="no"?>
<!DOCTYPE svg PUBLIC "-//W3C//DTD SVG 1.1//EN"
  "http://www.w3.org/Graphics/SVG/1.1/DTD/svg11.dtd">
<svg xmlns:xlink="http://www.w3.org/1999/xlink" width="499.186339pt" height="232.764907pt" viewBox="0 0 499.186339 232.764907" xmlns="http://www.w3.org/2000/svg" version="1.1">
 <metadata>
  <rdf:RDF xmlns:dc="http://purl.org/dc/elements/1.1/" xmlns:cc="http://creativecommons.org/ns#" xmlns:rdf="http://www.w3.org/1999/02/22-rdf-syntax-ns#">
   <cc:Work>
    <dc:type rdf:resource="http://purl.org/dc/dcmitype/StillImage"/>
    <dc:date>2026-09-15T02:41:53.973987</dc:date>
    <dc:format>image/svg+xml</dc:format>
    <dc:creator>
     <cc:Agent>
      <dc:title>Matplotlib v3.10.8, https://matplotlib.org/</dc:title>
     </cc:Agent>
    </dc:creator>
   </cc:Work>
  </rdf:RDF>
 </metadata>
 <defs>
  <style type="text/css">*{stroke-linejoin: round; stroke-linecap: butt}</style>
 </defs>
 <g id="figure_1">
  <g id="patch_1">
   <path d="M 0 232.764907 
L 499.186339 232.764907 
L 499.186339 0 
L 0 0 
z
" style="fill: #ffffff"/>
  </g>
  <g id="axes_1">
   <g id="patch_2">
    <path d="M 35.495 200.975142 
L 491.986339 200.975142 
L 491.986339 22.732622 
L 35.495 22.732622 
z
" style="fill: #ffffff"/>
   </g>
   <g id="matplotlib.axis_1">
    <g id="xtick_1">
     <g id="line2d_1">
      <defs>
       <path id="m795e2c67f9" d="M 0 0 
L 0 3 
" style="stroke: #000000; stroke-width: 0.8"/>
      </defs>
      <g>
       <use xlink:href="#m795e2c67f9" x="41.423459" y="200.975142" style="stroke: #000000; stroke-width: 0.8"/>
      </g>
     </g>
     <g id="text_1">
      <text style="font-size: 7.5px; font-family: 'Arial', 'DejaVu Sans', 'Liberation Sans', sans-serif; text-anchor: middle" x="41.423459" y="211.843501" transform="rotate(-0 41.423459 211.843501)">5.0</text>
     </g>
    </g>
    <g id="xtick_2">
     <g id="line2d_2">
      <g>
       <use xlink:href="#m795e2c67f9" x="115.529196" y="200.975142" style="stroke: #000000; stroke-width: 0.8"/>
      </g>
     </g>
     <g id="text_2">
      <text style="font-size: 7.5px; font-family: 'Arial', 'DejaVu Sans', 'Liberation Sans', sans-serif; text-anchor: middle" x="115.529196" y="211.843501" transform="rotate(-0 115.529196 211.843501)">5.5</text>
     </g>
    </g>
    <g id="xtick_3">
     <g id="line2d_3">
      <g>
       <use xlink:href="#m795e2c67f9" x="189.634933" y="200.975142" style="stroke: #000000; stroke-width: 0.8"/>
      </g>
     </g>
     <g id="text_3">
      <text style="font-size: 7.5px; font-family: 'Arial', 'DejaVu Sans', 'Liberation Sans', sans-serif; text-anchor: middle" x="189.634933" y="211.843501" transform="rotate(-0 189.634933 211.843501)">6.0</text>
     </g>
    </g>
    <g id="xtick_4">
     <g id="line2d_4">
      <g>
       <use xlink:href="#m795e2c67f9" x="263.740669" y="200.975142" style="stroke: #000000; stroke-width: 0.8"/>
      </g>
     </g>
     <g id="text_4">
      <text style="font-size: 7.5px; font-family: 'Arial', 'DejaVu Sans', 'Liberation Sans', sans-serif; text-anchor: middle" x="263.740669" y="211.843501" transform="rotate(-0 263.740669 211.843501)">6.5</text>
     </g>
    </g>
    <g id="xtick_5">
     <g id="line2d_5">
      <g>
       <use xlink:href="#m795e2c67f9" x="337.846406" y="200.975142" style="stroke: #000000; stroke-width: 0.8"/>
      </g>
     </g>
     <g id="text_5">
      <text style="font-size: 7.5px; font-family: 'Arial', 'DejaVu Sans', 'Liberation Sans', sans-serif; text-anchor: middle" x="337.846406" y="211.843501" transform="rotate(-0 337.846406 211.843501)">7.0</text>
     </g>
    </g>
    <g id="xtick_6">
     <g id="line2d_6">
      <g>
       <use xlink:href="#m795e2c67f9" x="411.952143" y="200.975142" style="stroke: #000000; stroke-width: 0.8"/>
      </g>
     </g>
     <g id="text_6">
      <text style="font-size: 7.5px; font-family: 'Arial', 'DejaVu Sans', 'Liberation Sans', sans-serif; text-anchor: middle" x="411.952143" y="211.843501" transform="rotate(-0 411.952143 211.843501)">7.5</text>
     </g>
    </g>
    <g id="xtick_7">
     <g id="line2d_7">
      <g>
       <use xlink:href="#m795e2c67f9" x="486.05788" y="200.975142" style="stroke: #000000; stroke-width: 0.8"/>
      </g>
     </g>
     <g id="text_7">
      <text style="font-size: 7.5px; font-family: 'Arial', 'DejaVu Sans', 'Liberation Sans', sans-serif; text-anchor: middle" x="486.05788" y="211.843501" transform="rotate(-0 486.05788 211.843501)">8.0</text>
     </g>
    </g>
    <g id="text_8">
     <!-- Time, $t$ -->
     <g transform="translate(249.475669 223.776157)">
      <text>
       <tspan x="0" y="-0.5625" style="font-size: 9px; font-family: 'Arial'">T</tspan>
       <tspan x="5.497559" y="-0.5625" style="font-size: 9px; font-family: 'Arial'">i</tspan>
       <tspan x="7.49707" y="-0.5625" style="font-size: 9px; font-family: 'Arial'">m</tspan>
       <tspan x="14.994141" y="-0.5625" style="font-size: 9px; font-family: 'Arial'">e</tspan>
       <tspan x="19.999512" y="-0.5625" style="font-size: 9px; font-family: 'Arial'">,</tspan>
       <tspan x="22.5" y="-0.5625" style="font-size: 9px; font-family: 'Arial'"> </tspan>
       <tspan x="25.000488" y="-0.5625" style="font-style: oblique; font-size: 9px; font-family: 'DejaVu Sans'">t</tspan>
      </text>
     </g>
    </g>
   </g>
   <g id="matplotlib.axis_2">
    <g id="ytick_1">
     <g id="line2d_8">
      <defs>
       <path id="m7a944dcd8d" d="M 0 0 
L -3 0 
" style="stroke: #000000; stroke-width: 0.8"/>
      </defs>
      <g>
       <use xlink:href="#m7a944dcd8d" x="35.495" y="200.975142" style="stroke: #000000; stroke-width: 0.8"/>
      </g>
     </g>
     <g id="text_9">
      <text style="font-size: 7.5px; font-family: 'Arial', 'DejaVu Sans', 'Liberation Sans', sans-serif; text-anchor: end" x="29.995" y="203.659322" transform="rotate(-0 29.995 203.659322)">0.0</text>
     </g>
    </g>
    <g id="ytick_2">
     <g id="line2d_9">
      <g>
       <use xlink:href="#m7a944dcd8d" x="35.495" y="173.544645" style="stroke: #000000; stroke-width: 0.8"/>
      </g>
     </g>
     <g id="text_10">
      <text style="font-size: 7.5px; font-family: 'Arial', 'DejaVu Sans', 'Liberation Sans', sans-serif; text-anchor: end" x="29.995" y="176.228825" transform="rotate(-0 29.995 176.228825)">0.2</text>
     </g>
    </g>
    <g id="ytick_3">
     <g id="line2d_10">
      <g>
       <use xlink:href="#m7a944dcd8d" x="35.495" y="146.114149" style="stroke: #000000; stroke-width: 0.8"/>
      </g>
     </g>
     <g id="text_11">
      <text style="font-size: 7.5px; font-family: 'Arial', 'DejaVu Sans', 'Liberation Sans', sans-serif; text-anchor: end" x="29.995" y="148.798328" transform="rotate(-0 29.995 148.798328)">0.4</text>
     </g>
    </g>
    <g id="ytick_4">
     <g id="line2d_11">
      <g>
       <use xlink:href="#m7a944dcd8d" x="35.495" y="118.683652" style="stroke: #000000; stroke-width: 0.8"/>
      </g>
     </g>
     <g id="text_12">
      <text style="font-size: 7.5px; font-family: 'Arial', 'DejaVu Sans', 'Liberation Sans', sans-serif; text-anchor: end" x="29.995" y="121.367832" transform="rotate(-0 29.995 121.367832)">0.6</text>
     </g>
    </g>
    <g id="ytick_5">
     <g id="line2d_12">
      <g>
       <use xlink:href="#m7a944dcd8d" x="35.495" y="91.253155" style="stroke: #000000; stroke-width: 0.8"/>
      </g>
     </g>
     <g id="text_13">
      <text style="font-size: 7.5px; font-family: 'Arial', 'DejaVu Sans', 'Liberation Sans', sans-serif; text-anchor: end" x="29.995" y="93.937335" transform="rotate(-0 29.995 93.937335)">0.8</text>
     </g>
    </g>
    <g id="ytick_6">
     <g id="line2d_13">
      <g>
       <use xlink:href="#m7a944dcd8d" x="35.495" y="63.822658" style="stroke: #000000; stroke-width: 0.8"/>
      </g>
     </g>
     <g id="text_14">
      <text style="font-size: 7.5px; font-family: 'Arial', 'DejaVu Sans', 'Liberation Sans', sans-serif; text-anchor: end" x="29.995" y="66.506838" transform="rotate(-0 29.995 66.506838)">1.0</text>
     </g>
    </g>
    <g id="ytick_7">
     <g id="line2d_14">
      <g>
       <use xlink:href="#m7a944dcd8d" x="35.495" y="36.392162" style="stroke: #000000; stroke-width: 0.8"/>
      </g>
     </g>
     <g id="text_15">
      <text style="font-size: 7.5px; font-family: 'Arial', 'DejaVu Sans', 'Liberation Sans', sans-serif; text-anchor: end" x="29.995" y="39.076341" transform="rotate(-0 29.995 39.076341)">1.2</text>
     </g>
    </g>
    <g id="text_16">
     <!-- Mean relative $L^2$ error -->
     <g transform="translate(13.78125 155.818882) rotate(-90)">
      <text>
       <tspan x="0" y="-0.873438" style="font-size: 9px; font-family: 'Arial'">M</tspan>
       <tspan x="7.49707" y="-0.873438" style="font-size: 9px; font-family: 'Arial'">e</tspan>
       <tspan x="12.502441" y="-0.873438" style="font-size: 9px; font-family: 'Arial'">a</tspan>
       <tspan x="17.507812" y="-0.873438" style="font-size: 9px; font-family: 'Arial'">n</tspan>
       <tspan x="22.513184" y="-0.873438" style="font-size: 9px; font-family: 'Arial'"> </tspan>
       <tspan x="25.013672" y="-0.873438" style="font-size: 9px; font-family: 'Arial'">r</tspan>
       <tspan x="28.010742" y="-0.873438" style="font-size: 9px; font-family: 'Arial'">e</tspan>
       <tspan x="33.016113" y="-0.873438" style="font-size: 9px; font-family: 'Arial'">l</tspan>
       <tspan x="35.015625" y="-0.873438" style="font-size: 9px; font-family: 'Arial'">a</tspan>
       <tspan x="40.020996" y="-0.873438" style="font-size: 9px; font-family: 'Arial'">t</tspan>
       <tspan x="42.521484" y="-0.873438" style="font-size: 9px; font-family: 'Arial'">i</tspan>
       <tspan x="44.520996" y="-0.873438" style="font-size: 9px; font-family: 'Arial'">v</tspan>
       <tspan x="49.020996" y="-0.873438" style="font-size: 9px; font-family: 'Arial'">e</tspan>
       <tspan x="54.026367" y="-0.873438" style="font-size: 9px; font-family: 'Arial'"> </tspan>
       <tspan x="66.427002" y="-0.873438" style="font-size: 9px; font-family: 'Arial'"> </tspan>
       <tspan x="68.92749" y="-0.873438" style="font-size: 9px; font-family: 'Arial'">e</tspan>
       <tspan x="73.932861" y="-0.873438" style="font-size: 9px; font-family: 'Arial'">r</tspan>
       <tspan x="76.929932" y="-0.873438" style="font-size: 9px; font-family: 'Arial'">r</tspan>
       <tspan x="79.927002" y="-0.873438" style="font-size: 9px; font-family: 'Arial'">o</tspan>
       <tspan x="84.932373" y="-0.873438" style="font-size: 9px; font-family: 'Arial'">r</tspan>
       <tspan x="56.526855" y="-0.873438" style="font-style: oblique; font-size: 9px; font-family: 'DejaVu Sans'">L</tspan>
       <tspan x="62.172656" y="-4.31875" style="font-size: 6.3px; font-family: 'DejaVu Sans'">2</tspan>
      </text>
     </g>
    </g>
   </g>
   <g id="patch_3">
    <path d="M 35.495 200.975142 
L 35.495 36.392162 
" style="fill: none; stroke: #000000; stroke-width: 0.8; stroke-linejoin: miter; stroke-linecap: square"/>
   </g>
   <g id="patch_4">
    <path d="M 41.423459 200.975142 
L 486.05788 200.975142 
" style="fill: none; stroke: #000000; stroke-width: 0.8; stroke-linejoin: miter; stroke-linecap: square"/>
   </g>
   <g id="line2d_15">
    <path d="M 41.423459 200.975142 
L 51.057205 193.907628 
L 59.949893 187.66128 
L 68.101524 182.214054 
L 75.512098 177.527176 
L 82.181614 173.549988 
L 88.85113 169.823307 
L 95.520647 166.368534 
L 101.449106 163.54319 
L 107.377565 160.964623 
L 113.306024 158.64786 
L 119.234483 156.589789 
L 125.903999 154.497524 
L 133.314573 152.40059 
L 142.207261 150.134774 
L 152.582064 147.731001 
L 187.41176 139.860591 
L 200.009736 136.551928 
L 222.982514 130.27561 
L 252.624809 122.209544 
L 268.928071 118.018563 
L 295.606136 111.403186 
L 317.0968 106.290969 
L 336.364291 101.930304 
L 363.783414 96.015298 
L 383.791963 91.910905 
L 400.836282 88.63798 
L 416.398487 85.877486 
L 437.148093 82.432286 
L 456.415585 79.454775 
L 474.942019 76.818861 
L 486.05788 75.354331 
L 486.05788 75.354331 
" clip-path="url(#pd7bf47b4c0)" style="fill: none; stroke-dasharray: 9.6,2.4,1.5,2.4; stroke-dashoffset: 0; stroke: #42949e; stroke-width: 1.5"/>
   </g>
   <g id="line2d_16">
    <defs>
     <path id="m2b28d7b1a0" d="M 0 2.969848 
L 2.969848 0 
L 0 -2.969848 
L -2.969848 0 
z
" style="stroke: #ffffff; stroke-width: 0.55; stroke-linejoin: miter"/>
    </defs>
    <g clip-path="url(#pd7bf47b4c0)">
     <use xlink:href="#m2b28d7b1a0" x="41.423459" y="200.975142" style="fill: #42949e; stroke: #ffffff; stroke-width: 0.55; stroke-linejoin: miter"/>
     <use xlink:href="#m2b28d7b1a0" x="115.529196" y="157.849639" style="fill: #42949e; stroke: #ffffff; stroke-width: 0.55; stroke-linejoin: miter"/>
     <use xlink:href="#m2b28d7b1a0" x="189.634933" y="139.291212" style="fill: #42949e; stroke: #ffffff; stroke-width: 0.55; stroke-linejoin: miter"/>
     <use xlink:href="#m2b28d7b1a0" x="263.740669" y="119.329818" style="fill: #42949e; stroke: #ffffff; stroke-width: 0.55; stroke-linejoin: miter"/>
     <use xlink:href="#m2b28d7b1a0" x="337.846406" y="101.605017" style="fill: #42949e; stroke: #ffffff; stroke-width: 0.55; stroke-linejoin: miter"/>
     <use xlink:href="#m2b28d7b1a0" x="411.952143" y="86.644802" style="fill: #42949e; stroke: #ffffff; stroke-width: 0.55; stroke-linejoin: miter"/>
     <use xlink:href="#m2b28d7b1a0" x="486.05788" y="75.354331" style="fill: #42949e; stroke: #ffffff; stroke-width: 0.55; stroke-linejoin: miter"/>
    </g>
   </g>
   <g id="line2d_17">
    <path d="M 41.423459 200.975142 
L 52.539319 194.815303 
L 61.432008 190.127549 
L 69.583639 186.08841 
L 76.994213 182.681388 
L 83.663729 179.868394 
L 89.592188 177.596345 
L 95.520647 175.562708 
L 100.708048 173.99655 
L 105.89545 172.645252 
L 111.082852 171.523899 
L 116.270253 170.645878 
L 124.421884 169.537568 
L 134.05563 168.46222 
L 145.17149 167.452983 
L 162.21581 166.158515 
L 181.483301 164.645477 
L 193.340219 163.47626 
L 216.312998 160.941883 
L 242.250006 157.853907 
L 274.115472 153.82523 
L 301.534595 150.167462 
L 323.025259 147.082465 
L 341.551693 144.200596 
L 356.37284 141.668808 
L 374.899274 138.260978 
L 406.023684 132.254864 
L 449.746069 123.685845 
L 482.352593 117.031559 
L 486.05788 116.261417 
L 486.05788 116.261417 
" clip-path="url(#pd7bf47b4c0)" style="fill: none; stroke-dasharray: 5.55,2.4; stroke-dashoffset: 0; stroke: #7884b4; stroke-width: 1.5"/>
   </g>
   <g id="legend_1">
    <g id="line2d_18">
     <path d="M 126.724458 12.943359 
L 136.099458 12.943359 
L 145.474458 12.943359 
" style="fill: none; stroke: #0f4d92; stroke-width: 2.5; stroke-linecap: square"/>
     <defs>
      <path id="m9814dd502f" d="M 0 2.25 
C 0.596707 2.25 1.169055 2.012926 1.59099 1.59099 
C 2.012926 1.169055 2.25 0.596707 2.25 0 
C 2.25 -0.596707 2.012926 -1.169055 1.59099 -1.59099 
C 1.169055 -2.012926 0.596707 -2.25 0 -2.25 
C -0.596707 -2.25 -1.169055 -2.012926 -1.59099 -1.59099 
C -2.012926 -1.169055 -2.25 -0.596707 -2.25 0 
C -2.25 0.596707 -2.012926 1.169055 -1.59099 1.59099 
C -1.169055 2.012926 -0.596707 2.25 0 2.25 
z
" style="stroke: #ffffff; stroke-width: 0.55"/>
     </defs>
     <g>
      <use xlink:href="#m9814dd502f" x="136.099458" y="12.943359" style="fill: #0f4d92; stroke: #ffffff; stroke-width: 0.55"/>
     </g>
    </g>
    <g id="text_17">
     <text style="font-size: 7.5px; font-family: 'Arial', 'DejaVu Sans', 'Liberation Sans', sans-serif; text-anchor: start" x="149.599458" y="15.568359" transform="rotate(-0 149.599458 15.568359)">GIFT</text>
    </g>
    <g id="line2d_19">
     <path d="M 178.678365 12.943359 
L 188.053365 12.943359 
L 197.428365 12.943359 
" style="fill: none; stroke-dasharray: 5.55,2.4; stroke-dashoffset: 0; stroke: #7884b4; stroke-width: 1.5"/>
     <defs>
      <path id="m7ee22644cd" d="M -2.25 2.25 
L 2.25 2.25 
L 2.25 -2.25 
L -2.25 -2.25 
z
" style="stroke: #ffffff; stroke-width: 0.55; stroke-linejoin: miter"/>
     </defs>
     <g>
      <use xlink:href="#m7ee22644cd" x="188.053365" y="12.943359" style="fill: #7884b4; stroke: #ffffff; stroke-width: 0.55; stroke-linejoin: miter"/>
     </g>
    </g>
    <g id="text_18">
     <text style="font-size: 7.5px; font-family: 'Arial', 'DejaVu Sans', 'Liberation Sans', sans-serif; text-anchor: start" x="201.553365" y="15.568359" transform="rotate(-0 201.553365 15.568359)">FNO-2D</text>
    </g>
    <g id="line2d_20">
     <path d="M 241.468599 12.943359 
L 250.843599 12.943359 
L 260.218599 12.943359 
" style="fill: none; stroke-dasharray: 9.6,2.4,1.5,2.4; stroke-dashoffset: 0; stroke: #42949e; stroke-width: 1.5"/>
     <defs>
      <path id="mae59459749" d="M 0 3.181981 
L 3.181981 0 
L 0 -3.181981 
L -3.181981 0 
z
" style="stroke: #ffffff; stroke-width: 0.55; stroke-linejoin: miter"/>
     </defs>
     <g>
      <use xlink:href="#mae59459749" x="250.843599" y="12.943359" style="fill: #42949e; stroke: #ffffff; stroke-width: 0.55; stroke-linejoin: miter"/>
     </g>
    </g>
    <g id="text_19">
     <text style="font-size: 7.5px; font-family: 'Arial', 'DejaVu Sans', 'Liberation Sans', sans-serif; text-anchor: start" x="264.343599" y="15.568359" transform="rotate(-0 264.343599 15.568359)">FNO-3D</text>
    </g>
    <g id="line2d_21">
     <path d="M 304.258833 12.943359 
L 313.633833 12.943359 
L 323.008833 12.943359 
" style="fill: none; stroke: #2e9e44; stroke-width: 1.8; stroke-linecap: square"/>
     <defs>
      <path id="mb13533560b" d="M 0 -2.25 
L -2.25 2.25 
L 2.25 2.25 
z
" style="stroke: #ffffff; stroke-width: 0.55; stroke-linejoin: miter"/>
     </defs>
     <g>
      <use xlink:href="#mb13533560b" x="313.633833" y="12.943359" style="fill: #2e9e44; stroke: #ffffff; stroke-width: 0.55; stroke-linejoin: miter"/>
     </g>
    </g>
    <g id="text_20">
     <text style="font-size: 7.5px; font-family: 'Arial', 'DejaVu Sans', 'Liberation Sans', sans-serif; text-anchor: start" x="327.133833" y="15.568359" transform="rotate(-0 327.133833 15.568359)">U-NO</text>
    </g>
    <g id="line2d_22">
     <path d="M 358.297505 12.943359 
L 367.672505 12.943359 
L 377.047505 12.943359 
" style="fill: none; stroke-dasharray: 1.6,2.64; stroke-dashoffset: 0; stroke: #e28e2c; stroke-width: 1.6"/>
     <defs>
      <path id="m80aea5821e" d="M -0 2.25 
L 2.25 -2.25 
L -2.25 -2.25 
z
" style="stroke: #ffffff; stroke-width: 0.55; stroke-linejoin: miter"/>
     </defs>
     <g>
      <use xlink:href="#m80aea5821e" x="367.672505" y="12.943359" style="fill: #e28e2c; stroke: #ffffff; stroke-width: 0.55; stroke-linejoin: miter"/>
     </g>
    </g>
    <g id="text_21">
     <text style="font-size: 7.5px; font-family: 'Arial', 'DejaVu Sans', 'Liberation Sans', sans-serif; text-anchor: start" x="381.172505" y="15.568359" transform="rotate(-0 381.172505 15.568359)">U-Net</text>
    </g>
   </g>
   <g id="line2d_23">
    <defs>
     <path id="md64f659885" d="M -2.1 2.1 
L 2.1 2.1 
L 2.1 -2.1 
L -2.1 -2.1 
z
" style="stroke: #ffffff; stroke-width: 0.55; stroke-linejoin: miter"/>
    </defs>
    <g clip-path="url(#pd7bf47b4c0)">
     <use xlink:href="#md64f659885" x="41.423459" y="200.975142" style="fill: #7884b4; stroke: #ffffff; stroke-width: 0.55; stroke-linejoin: miter"/>
     <use xlink:href="#md64f659885" x="115.529196" y="170.757191" style="fill: #7884b4; stroke: #ffffff; stroke-width: 0.55; stroke-linejoin: miter"/>
     <use xlink:href="#md64f659885" x="189.634933" y="163.864102" style="fill: #7884b4; stroke: #ffffff; stroke-width: 0.55; stroke-linejoin: miter"/>
     <use xlink:href="#md64f659885" x="263.740669" y="155.158409" style="fill: #7884b4; stroke: #ffffff; stroke-width: 0.55; stroke-linejoin: miter"/>
     <use xlink:href="#md64f659885" x="337.846406" y="144.798182" style="fill: #7884b4; stroke: #ffffff; stroke-width: 0.55; stroke-linejoin: miter"/>
     <use xlink:href="#md64f659885" x="411.952143" y="131.110989" style="fill: #7884b4; stroke: #ffffff; stroke-width: 0.55; stroke-linejoin: miter"/>
     <use xlink:href="#md64f659885" x="486.05788" y="116.261417" style="fill: #7884b4; stroke: #ffffff; stroke-width: 0.55; stroke-linejoin: miter"/>
    </g>
   </g>
   <g id="line2d_24">
    <path d="M 41.423459 200.975142 
L 57.726721 194.342863 
L 74.77104 187.164662 
L 91.81536 179.747793 
L 109.600737 171.766305 
L 122.939769 165.573528 
L 134.05563 160.133921 
L 150.358892 151.878226 
L 172.590613 140.636602 
L 183.706474 135.259959 
L 194.081277 130.492605 
L 211.125596 122.915119 
L 228.169916 115.589142 
L 244.473178 108.821378 
L 260.77644 102.292166 
L 278.561817 95.419716 
L 296.347193 88.776407 
L 313.391513 82.646133 
L 329.694775 77.018575 
L 348.221209 70.88281 
L 368.970816 64.193733 
L 383.791963 59.63912 
L 396.389938 55.988943 
L 407.505799 52.982781 
L 420.103774 49.823723 
L 436.407036 45.954632 
L 451.228183 42.663784 
L 465.308273 39.762506 
L 478.647306 37.237357 
L 486.05788 35.935772 
L 486.05788 35.935772 
" clip-path="url(#pd7bf47b4c0)" style="fill: none; stroke-dasharray: 1.6,2.64; stroke-dashoffset: 0; stroke: #e28e2c; stroke-width: 1.6"/>
   </g>
   <g id="line2d_25">
    <defs>
     <path id="m2ab12deba1" d="M -0 2.1 
L 2.1 -2.1 
L -2.1 -2.1 
z
" style="stroke: #ffffff; stroke-width: 0.55; stroke-linejoin: miter"/>
    </defs>
    <g clip-path="url(#pd7bf47b4c0)">
     <use xlink:href="#m2ab12deba1" x="41.423459" y="200.975142" style="fill: #e28e2c; stroke: #ffffff; stroke-width: 0.55; stroke-linejoin: miter"/>
     <use xlink:href="#m2ab12deba1" x="115.529196" y="169.05305" style="fill: #e28e2c; stroke: #ffffff; stroke-width: 0.55; stroke-linejoin: miter"/>
     <use xlink:href="#m2ab12deba1" x="189.634933" y="132.51012" style="fill: #e28e2c; stroke: #ffffff; stroke-width: 0.55; stroke-linejoin: miter"/>
     <use xlink:href="#m2ab12deba1" x="263.740669" y="101.130989" style="fill: #e28e2c; stroke: #ffffff; stroke-width: 0.55; stroke-linejoin: miter"/>
     <use xlink:href="#m2ab12deba1" x="337.846406" y="74.297301" style="fill: #e28e2c; stroke: #ffffff; stroke-width: 0.55; stroke-linejoin: miter"/>
     <use xlink:href="#m2ab12deba1" x="411.952143" y="51.84542" style="fill: #e28e2c; stroke: #ffffff; stroke-width: 0.55; stroke-linejoin: miter"/>
     <use xlink:href="#m2ab12deba1" x="486.05788" y="35.935772" style="fill: #e28e2c; stroke: #ffffff; stroke-width: 0.55; stroke-linejoin: miter"/>
    </g>
   </g>
   <g id="line2d_26">
    <path d="M 41.423459 200.975142 
L 67.360467 199.200663 
L 87.369016 198.04489 
L 105.154393 197.235898 
L 121.457655 196.713596 
L 144.430433 196.226508 
L 194.081277 195.245959 
L 220.759342 194.392286 
L 256.330096 193.009122 
L 294.865079 191.319364 
L 328.21266 189.62031 
L 357.113898 187.937309 
L 386.756192 185.961783 
L 426.032233 183.103767 
L 458.638757 180.502623 
L 486.05788 178.151881 
L 486.05788 178.151881 
" clip-path="url(#pd7bf47b4c0)" style="fill: none; stroke: #2e9e44; stroke-width: 1.8; stroke-linecap: round"/>
   </g>
   <g id="line2d_27">
    <defs>
     <path id="m0a858ea05f" d="M 0 -2.1 
L -2.1 2.1 
L 2.1 2.1 
z
" style="stroke: #ffffff; stroke-width: 0.55; stroke-linejoin: miter"/>
    </defs>
    <g clip-path="url(#pd7bf47b4c0)">
     <use xlink:href="#m0a858ea05f" x="41.423459" y="200.975142" style="fill: #2e9e44; stroke: #ffffff; stroke-width: 0.55; stroke-linejoin: miter"/>
     <use xlink:href="#m0a858ea05f" x="115.529196" y="196.87944" style="fill: #2e9e44; stroke: #ffffff; stroke-width: 0.55; stroke-linejoin: miter"/>
     <use xlink:href="#m0a858ea05f" x="189.634933" y="195.365509" style="fill: #2e9e44; stroke: #ffffff; stroke-width: 0.55; stroke-linejoin: miter"/>
     <use xlink:href="#m0a858ea05f" x="263.740669" y="192.703568" style="fill: #2e9e44; stroke: #ffffff; stroke-width: 0.55; stroke-linejoin: miter"/>
     <use xlink:href="#m0a858ea05f" x="337.846406" y="189.087352" style="fill: #2e9e44; stroke: #ffffff; stroke-width: 0.55; stroke-linejoin: miter"/>
     <use xlink:href="#m0a858ea05f" x="411.952143" y="184.155434" style="fill: #2e9e44; stroke: #ffffff; stroke-width: 0.55; stroke-linejoin: miter"/>
     <use xlink:href="#m0a858ea05f" x="486.05788" y="178.151881" style="fill: #2e9e44; stroke: #ffffff; stroke-width: 0.55; stroke-linejoin: miter"/>
    </g>
   </g>
   <g id="line2d_28">
    <path d="M 41.423459 200.975142 
L 65.878352 198.766884 
L 81.440557 197.579126 
L 94.779589 196.778547 
L 106.636507 196.284517 
L 117.752368 196.040741 
L 145.912548 195.749299 
L 227.428858 195.040576 
L 314.13257 193.965793 
L 353.408611 193.284164 
L 388.979364 192.422053 
L 428.255405 191.250031 
L 460.861929 190.038279 
L 486.05788 188.968591 
L 486.05788 188.968591 
" clip-path="url(#pd7bf47b4c0)" style="fill: none; stroke: #0f4d92; stroke-width: 2.5; stroke-linecap: round"/>
   </g>
   <g id="line2d_29">
    <defs>
     <path id="md28c35be54" d="M 0 2.4 
C 0.636487 2.4 1.246992 2.147121 1.697056 1.697056 
C 2.147121 1.246992 2.4 0.636487 2.4 0 
C 2.4 -0.636487 2.147121 -1.246992 1.697056 -1.697056 
C 1.246992 -2.147121 0.636487 -2.4 0 -2.4 
C -0.636487 -2.4 -1.246992 -2.147121 -1.697056 -1.697056 
C -2.147121 -1.246992 -2.4 -0.636487 -2.4 0 
C -2.4 0.636487 -2.147121 1.246992 -1.697056 1.697056 
C -1.246992 2.147121 -0.636487 2.4 0 2.4 
z
" style="stroke: #ffffff; stroke-width: 0.55"/>
    </defs>
    <g clip-path="url(#pd7bf47b4c0)">
     <use xlink:href="#md28c35be54" x="41.423459" y="200.975142" style="fill: #0f4d92; stroke: #ffffff; stroke-width: 0.55"/>
     <use xlink:href="#md28c35be54" x="115.529196" y="196.07373" style="fill: #0f4d92; stroke: #ffffff; stroke-width: 0.55"/>
     <use xlink:href="#md28c35be54" x="189.634933" y="195.434476" style="fill: #0f4d92; stroke: #ffffff; stroke-width: 0.55"/>
     <use xlink:href="#md28c35be54" x="263.740669" y="194.614662" style="fill: #0f4d92; stroke: #ffffff; stroke-width: 0.55"/>
     <use xlink:href="#md28c35be54" x="337.846406" y="193.586448" style="fill: #0f4d92; stroke: #ffffff; stroke-width: 0.55"/>
     <use xlink:href="#md28c35be54" x="411.952143" y="191.767791" style="fill: #0f4d92; stroke: #ffffff; stroke-width: 0.55"/>
     <use xlink:href="#md28c35be54" x="486.05788" y="188.968591" style="fill: #0f4d92; stroke: #ffffff; stroke-width: 0.55"/>
    </g>
   </g>
  </g>
 </g>
 <defs>
  <clipPath id="pd7bf47b4c0">
   <rect x="35.495" y="22.732622" width="456.491339" height="178.24252"/>
  </clipPath>
 </defs>
</svg>
